<mxfile host="app.diagrams.net" modified="2023-05-23T10:58:46.276Z" agent="Mozilla/5.0 (Windows NT 10.0; Win64; x64) AppleWebKit/537.36 (KHTML, like Gecko) Chrome/113.0.0.0 Safari/537.36" etag="uim0nJ65tz2mn20rsLO1" version="21.3.2" type="device">
  <diagram name="Страница 1" id="8sWEoKFI3Y5NvLoD8UiD">
    <mxGraphModel dx="1050" dy="515" grid="1" gridSize="10" guides="1" tooltips="1" connect="1" arrows="1" fold="1" page="1" pageScale="1" pageWidth="827" pageHeight="1169" math="0" shadow="0">
      <root>
        <mxCell id="0" />
        <mxCell id="1" parent="0" />
        <mxCell id="CtQIxXatsmyqZvY8yDoc-1" value="" style="triangle;whiteSpace=wrap;html=1;rotation=90;" parent="1" vertex="1">
          <mxGeometry x="379" y="110" width="70" height="80" as="geometry" />
        </mxCell>
        <mxCell id="CtQIxXatsmyqZvY8yDoc-2" value="" style="ellipse;whiteSpace=wrap;html=1;aspect=fixed;" parent="1" vertex="1">
          <mxGeometry x="455" y="300" width="40" height="40" as="geometry" />
        </mxCell>
        <mxCell id="CtQIxXatsmyqZvY8yDoc-3" value="&lt;font style=&quot;font-size: 14px;&quot;&gt;Строительство &lt;br&gt;казарм&lt;/font&gt;" style="text;html=1;align=center;verticalAlign=middle;resizable=0;points=[];autosize=1;strokeColor=none;fillColor=none;" parent="1" vertex="1">
          <mxGeometry x="414" y="330" width="120" height="50" as="geometry" />
        </mxCell>
        <mxCell id="CtQIxXatsmyqZvY8yDoc-4" value="" style="ellipse;whiteSpace=wrap;html=1;aspect=fixed;" parent="1" vertex="1">
          <mxGeometry x="200" y="240" width="40" height="40" as="geometry" />
        </mxCell>
        <mxCell id="CtQIxXatsmyqZvY8yDoc-5" value="&lt;font style=&quot;font-size: 14px;&quot;&gt;Строительство &lt;br&gt;командного&lt;br&gt;пункта&lt;br&gt;&lt;/font&gt;" style="text;html=1;align=center;verticalAlign=middle;resizable=0;points=[];autosize=1;strokeColor=none;fillColor=none;" parent="1" vertex="1">
          <mxGeometry x="160" y="280" width="120" height="60" as="geometry" />
        </mxCell>
        <mxCell id="CtQIxXatsmyqZvY8yDoc-6" value="" style="ellipse;whiteSpace=wrap;html=1;aspect=fixed;" parent="1" vertex="1">
          <mxGeometry x="545" y="300" width="40" height="40" as="geometry" />
        </mxCell>
        <mxCell id="CtQIxXatsmyqZvY8yDoc-7" value="&lt;font style=&quot;font-size: 14px;&quot;&gt;Наём&lt;br&gt;пехотинца&lt;br&gt;&lt;/font&gt;" style="text;html=1;align=center;verticalAlign=middle;resizable=0;points=[];autosize=1;strokeColor=none;fillColor=none;" parent="1" vertex="1">
          <mxGeometry x="520" y="330" width="90" height="50" as="geometry" />
        </mxCell>
        <mxCell id="CtQIxXatsmyqZvY8yDoc-8" value="" style="ellipse;whiteSpace=wrap;html=1;aspect=fixed;" parent="1" vertex="1">
          <mxGeometry x="630" y="230" width="40" height="40" as="geometry" />
        </mxCell>
        <mxCell id="CtQIxXatsmyqZvY8yDoc-9" value="&lt;font style=&quot;font-size: 14px;&quot;&gt;Строительство&lt;br&gt;газодобывающей&lt;br&gt;станции&lt;br&gt;&lt;/font&gt;" style="text;html=1;align=center;verticalAlign=middle;resizable=0;points=[];autosize=1;strokeColor=none;fillColor=none;" parent="1" vertex="1">
          <mxGeometry x="580" y="270" width="140" height="60" as="geometry" />
        </mxCell>
        <mxCell id="GDGvDvxpxq4pDPFjn5GT-1" value="" style="ellipse;whiteSpace=wrap;html=1;aspect=fixed;" vertex="1" parent="1">
          <mxGeometry x="270" y="300" width="40" height="40" as="geometry" />
        </mxCell>
        <mxCell id="GDGvDvxpxq4pDPFjn5GT-2" value="&lt;font style=&quot;font-size: 14px;&quot;&gt;Строительство &lt;br&gt;ресурсного&lt;br&gt;депо&lt;br&gt;&lt;/font&gt;" style="text;html=1;align=center;verticalAlign=middle;resizable=0;points=[];autosize=1;strokeColor=none;fillColor=none;" vertex="1" parent="1">
          <mxGeometry x="230" y="340" width="120" height="60" as="geometry" />
        </mxCell>
        <mxCell id="GDGvDvxpxq4pDPFjn5GT-3" value="" style="ellipse;whiteSpace=wrap;html=1;aspect=fixed;" vertex="1" parent="1">
          <mxGeometry x="365" y="300" width="40" height="40" as="geometry" />
        </mxCell>
        <mxCell id="GDGvDvxpxq4pDPFjn5GT-4" value="&lt;font style=&quot;font-size: 14px;&quot;&gt;Наём&lt;br&gt;работника&lt;br&gt;&lt;/font&gt;" style="text;html=1;align=center;verticalAlign=middle;resizable=0;points=[];autosize=1;strokeColor=none;fillColor=none;" vertex="1" parent="1">
          <mxGeometry x="340" y="330" width="90" height="50" as="geometry" />
        </mxCell>
        <mxCell id="GDGvDvxpxq4pDPFjn5GT-5" value="" style="rounded=1;whiteSpace=wrap;html=1;" vertex="1" parent="1">
          <mxGeometry x="374" y="210" width="80" height="40" as="geometry" />
        </mxCell>
        <mxCell id="GDGvDvxpxq4pDPFjn5GT-6" value="" style="endArrow=classic;html=1;rounded=0;exitX=1;exitY=0.5;exitDx=0;exitDy=0;entryX=0.5;entryY=0;entryDx=0;entryDy=0;" edge="1" parent="1" source="CtQIxXatsmyqZvY8yDoc-1" target="GDGvDvxpxq4pDPFjn5GT-5">
          <mxGeometry width="50" height="50" relative="1" as="geometry">
            <mxPoint x="390" y="320" as="sourcePoint" />
            <mxPoint x="440" y="270" as="targetPoint" />
          </mxGeometry>
        </mxCell>
        <mxCell id="GDGvDvxpxq4pDPFjn5GT-7" value="" style="endArrow=classic;html=1;rounded=0;exitX=0;exitY=0.5;exitDx=0;exitDy=0;entryX=1;entryY=0;entryDx=0;entryDy=0;" edge="1" parent="1" source="GDGvDvxpxq4pDPFjn5GT-5" target="CtQIxXatsmyqZvY8yDoc-4">
          <mxGeometry width="50" height="50" relative="1" as="geometry">
            <mxPoint x="390" y="320" as="sourcePoint" />
            <mxPoint x="440" y="270" as="targetPoint" />
          </mxGeometry>
        </mxCell>
        <mxCell id="GDGvDvxpxq4pDPFjn5GT-8" value="" style="endArrow=classic;html=1;rounded=0;exitX=0;exitY=1;exitDx=0;exitDy=0;entryX=0.5;entryY=0;entryDx=0;entryDy=0;" edge="1" parent="1" source="GDGvDvxpxq4pDPFjn5GT-5" target="GDGvDvxpxq4pDPFjn5GT-1">
          <mxGeometry width="50" height="50" relative="1" as="geometry">
            <mxPoint x="390" y="320" as="sourcePoint" />
            <mxPoint x="440" y="270" as="targetPoint" />
          </mxGeometry>
        </mxCell>
        <mxCell id="GDGvDvxpxq4pDPFjn5GT-9" value="" style="endArrow=classic;html=1;rounded=0;exitX=0.5;exitY=1;exitDx=0;exitDy=0;entryX=0.5;entryY=0;entryDx=0;entryDy=0;" edge="1" parent="1" source="GDGvDvxpxq4pDPFjn5GT-5" target="GDGvDvxpxq4pDPFjn5GT-3">
          <mxGeometry width="50" height="50" relative="1" as="geometry">
            <mxPoint x="390" y="320" as="sourcePoint" />
            <mxPoint x="440" y="270" as="targetPoint" />
          </mxGeometry>
        </mxCell>
        <mxCell id="GDGvDvxpxq4pDPFjn5GT-10" value="" style="endArrow=classic;html=1;rounded=0;exitX=0.5;exitY=1;exitDx=0;exitDy=0;entryX=0.5;entryY=0;entryDx=0;entryDy=0;" edge="1" parent="1" source="GDGvDvxpxq4pDPFjn5GT-5" target="CtQIxXatsmyqZvY8yDoc-2">
          <mxGeometry width="50" height="50" relative="1" as="geometry">
            <mxPoint x="390" y="320" as="sourcePoint" />
            <mxPoint x="440" y="270" as="targetPoint" />
          </mxGeometry>
        </mxCell>
        <mxCell id="GDGvDvxpxq4pDPFjn5GT-11" value="" style="endArrow=classic;html=1;rounded=0;exitX=1;exitY=1;exitDx=0;exitDy=0;entryX=0.5;entryY=0;entryDx=0;entryDy=0;" edge="1" parent="1" source="GDGvDvxpxq4pDPFjn5GT-5" target="CtQIxXatsmyqZvY8yDoc-6">
          <mxGeometry width="50" height="50" relative="1" as="geometry">
            <mxPoint x="390" y="320" as="sourcePoint" />
            <mxPoint x="440" y="270" as="targetPoint" />
          </mxGeometry>
        </mxCell>
        <mxCell id="GDGvDvxpxq4pDPFjn5GT-12" value="" style="endArrow=classic;html=1;rounded=0;exitX=1;exitY=0.5;exitDx=0;exitDy=0;entryX=0;entryY=0;entryDx=0;entryDy=0;" edge="1" parent="1" source="GDGvDvxpxq4pDPFjn5GT-5" target="CtQIxXatsmyqZvY8yDoc-8">
          <mxGeometry width="50" height="50" relative="1" as="geometry">
            <mxPoint x="390" y="320" as="sourcePoint" />
            <mxPoint x="440" y="270" as="targetPoint" />
          </mxGeometry>
        </mxCell>
      </root>
    </mxGraphModel>
  </diagram>
</mxfile>
